Coordinates
version=1
nRows=8
nColumns=40
inDegrees=yes

Units are S.I. units (second, meters, Newtons, ...)
Angles are in degrees.

endheader
time	pelvis_tilt	pelvis_list	pelvis_rotation	pelvis_tx	pelvis_ty	pelvis_tz	hip_flexion_r	hip_adduction_r	hip_rotation_r	knee_angle_r	knee_angle_r_beta	ankle_angle_r	subtalar_angle_r	mtp_angle_r	hip_flexion_l	hip_adduction_l	hip_rotation_l	knee_angle_l	knee_angle_l_beta	ankle_angle_l	subtalar_angle_l	mtp_angle_l	lumbar_extension	lumbar_bending	lumbar_rotation	arm_flex_r	arm_add_r	arm_rot_r	elbow_flex_r	pro_sup_r	wrist_flex_r	wrist_dev_r	arm_flex_l	arm_add_l	arm_rot_l	elbow_flex_l	pro_sup_l	wrist_flex_l	wrist_dev_l
     25.77500000	     -6.86724669	     -4.98518737	      1.46952191	      0.78482359	      0.91940937	      0.45911763	      8.39392517	     -0.92996113	    -10.72749149	     31.14252847	     31.14252847	     14.80260591	    -10.76074004	     -4.96302378	     27.81519917	     -7.76176562	     -3.89374488	     26.92207722	     26.92207722	      8.74870988	    -13.88144920	      3.48070194	     -8.75164306	      4.42158116	      1.91799396	     32.00341889	    -14.46916010	     -1.27324641	    105.41592482	     44.29466599	      0.00000000	      0.00000000	     -2.33371432	    -10.64877906	     -4.27274789	     34.26199112	     45.54254055	      0.00000000	      0.00000000
     25.78742857	     -6.76350004	     -4.85166686	      1.23825430	      0.78510429	      0.92041020	      0.45686181	      9.56311042	     -1.48112076	    -10.40665369	     34.06828507	     34.06828507	     13.65693544	    -12.13256657	     -5.48348092	     27.03570616	     -7.57210362	     -4.24613515	     26.71452225	     26.71452225	      9.21686522	    -13.86429001	      3.36639765	     -8.83669572	      4.24614570	      1.75331683	     31.30671483	    -14.53411746	     -1.16855096	    105.05060645	     44.30728867	      0.00000000	      0.00000000	     -1.47106403	    -10.86240808	     -4.18498347	     34.25515572	     45.54863202	      0.00000000	      0.00000000
     25.79985714	     -6.60982153	     -4.76855327	      1.10511170	      0.78521828	      0.92144152	      0.45455038	     10.76657820	     -1.97356027	    -10.13866208	     37.07849000	     37.07849000	     12.25140837	    -13.56919594	     -5.90429860	     26.23919677	     -7.39320273	     -4.46286952	     26.50017925	     26.50017925	      9.53294391	    -13.77390442	      3.27866349	     -8.99948872	      4.16707434	      1.59176385	     30.44935880	    -14.58621472	     -1.04007601	    104.53331844	     44.32200419	      0.00000000	      0.00000000	     -0.57369897	    -11.07152670	     -4.09298850	     34.32736102	     45.55407723	      0.00000000	      0.00000000
     25.81228571	     -6.50296193	     -4.68561475	      0.96047977	      0.78527563	      0.92230284	      0.45228320	     12.07888712	     -2.45683177	     -9.89267930	     40.11066710	     40.11066710	     10.62231853	    -15.08939635	     -6.25653892	     25.46684427	     -7.20227441	     -4.67793099	     26.23658442	     26.23658442	      9.88920456	    -13.73075925	      3.16965677	     -9.09729469	      4.11800998	      1.42952026	     29.47903554	    -14.69417924	     -0.94247674	    103.84975717	     44.34243315	      0.00000000	      0.00000000	      0.33971513	    -11.29950179	     -3.98206850	     34.45164898	     45.55745303	      0.00000000	      0.00000000
     25.82471429	     -6.41518461	     -4.59731392	      0.83268927	      0.78525178	      0.92303278	      0.45002603	     13.47078302	     -2.95293722	     -9.68662215	     43.16443141	     43.16443141	      8.76734808	    -16.60197387	     -6.49624395	     24.73125363	     -6.99315316	     -4.86903358	     25.97238494	     25.97238494	     10.18169069	    -13.71619343	      3.06704337	     -9.16003486	      4.07573390	      1.31025022	     28.38662333	    -14.84197478	     -0.89091670	    102.94626033	     44.37143241	      0.00000000	      0.00000000	      1.27038231	    -11.53342245	     -3.82983738	     34.63732811	     45.55645171	      0.00000000	      0.00000000
     25.83714286	     -6.30741962	     -4.49743267	      0.73863954	      0.78517546	      0.92370778	      0.44765676	     14.86615136	     -3.52496842	     -9.61764654	     46.19835978	     46.19835978	      6.85682741	    -17.78187192	     -6.47053458	     23.98583471	     -6.73801646	     -4.96714226	     25.71635413	     25.71635413	     10.49736955	    -13.72472383	      2.94131328	     -9.24995496	      4.07982621	      1.19086445	     27.18729583	    -14.97813367	     -0.89234707	    101.82886638	     44.40900569	      0.00000000	      0.00000000	      2.24833680	    -11.75920603	     -3.62881051	     34.93336462	     45.55077928	      0.00000000	      0.00000000
     25.84957143	     -6.20308202	     -4.34372479	      0.65422675	      0.78508133	      0.92427905	      0.44524965	     16.29233440	     -4.25240833	     -9.72736277	     49.22295407	     49.22295407	      5.05269649	    -18.48065604	     -5.90931244	     23.25813564	     -6.42240362	     -5.11831034	     25.47093959	     25.47093959	     10.76613162	    -13.79467281	      2.84056302	     -9.36662103	      4.05007763	      1.07516526	     25.88587624	    -15.09195303	     -0.93339502	    100.53726456	     44.45258840	      0.00000000	      0.00000000	      3.21308108	    -12.00168943	     -3.41587909	     35.35118961	     45.54383631	      0.00000000	      0.00000000
     25.86200000	     -6.10839902	     -4.24240203	      0.61313872	      0.78486719	      0.92481487	      0.44298034	     17.91301687	     -4.78129826	     -9.60133605	     52.48972777	     52.48972777	      4.66055091	    -18.73131376	     -0.69863910	     22.55191848	     -6.11593749	     -5.05864882	     25.18451466	     25.18451466	     10.87807815	    -14.09933742	      2.54574161	     -9.41496420	      4.08112109	      0.86945075	     24.71625404	    -14.73913701	     -1.54844690	     98.18735347	     44.58392027	      0.00000000	      0.00000000	      4.00258408	    -12.57526059	     -1.75316866	     36.18851070	     45.39430582	      0.00000000	      0.00000000
